<svg width="324" height="63" xmlns="http://www.w3.org/2000/svg" xmlns:xlink="http://www.w3.org/1999/xlink" overflow="hidden"><defs><clipPath id="clip0"><path d="M464 72 788 72 788 135 464 135Z" fill-rule="evenodd" clip-rule="evenodd"/></clipPath></defs><g clip-path="url(#clip0)" transform="translate(-464 -72)"><path d="M594.002 77 604.773 77 610.784 89.4159C611.452 90.7289 612.106 92.0703 612.747 93.4404 613.387 94.8104 614.124 96.3231 614.959 97.9786L615.293 97.9786C615.961 96.3231 616.587 94.8104 617.172 93.4404 617.756 92.0703 618.355 90.7289 618.967 89.4159L624.728 77 634.998 77 620.47 104.572 636 133 625.229 133 618.549 119.813C617.826 118.329 617.116 116.859 616.42 115.404 615.725 113.948 614.959 112.364 614.124 110.651L613.79 110.651C613.067 112.364 612.385 113.948 611.745 115.404 611.105 116.859 610.451 118.329 609.783 119.813L603.27 133 593 133 608.53 104.144 594.002 77Z" fill="#C00000" fill-rule="evenodd"/><path d="M756 77 769 77 769 79.6972 764.026 79.6972 764.026 95 760.974 95 760.974 79.6972 756 79.6972 756 77Z" fill="#252525" fill-rule="evenodd"/><path d="M772 77 775.62 77 778.826 85.8074C779.028 86.3762 779.222 86.9587 779.406 87.555 779.59 88.1514 779.784 88.7431 779.986 89.3303L780.097 89.3303C780.299 88.7431 780.488 88.1514 780.663 87.555 780.838 86.9587 781.027 86.3762 781.23 85.8074L784.352 77 788 77 788 95 785.043 95 785.043 86.7706C785.043 86.3486 785.057 85.8899 785.085 85.3945 785.112 84.8991 785.145 84.399 785.181 83.8945 785.218 83.3899 785.264 82.8945 785.32 82.4083 785.375 81.922 785.421 81.4678 785.458 81.0459L785.347 81.0459 783.883 85.2293 780.926 93.3211 779.019 93.3211 776.035 85.2293 774.598 81.0459 774.487 81.0459C774.524 81.4678 774.565 81.922 774.611 82.4083 774.657 82.8945 774.704 83.3899 774.75 83.8945 774.796 84.399 774.833 84.8991 774.86 85.3945 774.888 85.8899 774.902 86.3486 774.902 86.7706L774.902 95 772 95 772 77Z" fill="#252525" fill-rule="evenodd"/><path d="M648.5 73C650.392 73 651.948 73.5178 653.169 74.5534 654.39 75.5891 655 76.9186 655 78.542 655 80.1654 654.39 81.4809 653.169 82.4885 651.948 83.4962 650.392 84 648.5 84 646.608 84 645.052 83.4962 643.831 82.4885 642.61 81.4809 642 80.1654 642 78.542 642 76.9186 642.61 75.5891 643.831 74.5534 645.052 73.5178 646.608 73 648.5 73Z" fill="#252525" fill-rule="evenodd"/><path d="M486.068 90C488.809 90 491.164 90.4557 493.133 91.367 495.103 92.2783 496.859 93.389 498.401 94.699L493.605 101.107C492.463 100.139 491.335 99.3838 490.222 98.8427 489.108 98.3016 487.895 98.0311 486.582 98.0311 483.156 98.0311 480.387 99.2984 478.275 101.833 476.162 104.368 475.106 107.771 475.106 112.043 475.106 116.258 476.148 119.632 478.232 122.167 480.316 124.702 483.013 125.969 486.325 125.969 487.981 125.969 489.537 125.613 490.992 124.901 492.448 124.189 493.776 123.349 494.975 122.381L499 128.874C497.002 130.583 494.818 131.864 492.448 132.718 490.079 133.573 487.695 134 485.297 134 482.442 134 479.773 133.516 477.29 132.548 474.806 131.579 472.651 130.155 470.824 128.276 468.997 126.396 467.569 124.089 466.542 121.355 465.514 118.621 465 115.517 465 112.043 465 108.568 465.571 105.464 466.713 102.73 467.855 99.9961 469.396 97.6893 471.338 95.8097 473.279 93.9301 475.52 92.4919 478.06 91.4951 480.601 90.4984 483.27 90 486.068 90Z" fill="#252525" fill-rule="evenodd"/><path d="M523.957 90C526.584 90 529.111 90.4984 531.537 91.4951 533.964 92.4919 536.091 93.9301 537.919 95.8097 539.746 97.6893 541.216 99.9961 542.33 102.73 543.443 105.464 544 108.568 544 112.043 544 115.517 543.443 118.621 542.33 121.355 541.216 124.089 539.746 126.396 537.919 128.276 536.091 130.155 533.964 131.579 531.537 132.548 529.111 133.516 526.584 134 523.957 134 521.331 134 518.818 133.516 516.42 132.548 514.021 131.579 511.894 130.155 510.039 128.276 508.183 126.396 506.712 124.089 505.627 121.355 504.542 118.621 504 115.517 504 112.043 504 108.568 504.542 105.464 505.627 102.73 506.712 99.9961 508.183 97.6893 510.039 95.8097 511.894 93.9301 514.021 92.4919 516.42 91.4951 518.818 90.4984 521.331 90 523.957 90ZM523.957 98.0311C520.874 98.0311 518.461 99.2984 516.719 101.833 514.978 104.368 514.107 107.771 514.107 112.043 514.107 116.258 514.978 119.632 516.719 122.167 518.461 124.702 520.874 125.969 523.957 125.969 527.041 125.969 529.468 124.702 531.238 122.167 533.008 119.632 533.893 116.258 533.893 112.043 533.893 107.771 533.008 104.368 531.238 101.833 529.468 99.2984 527.041 98.0311 523.957 98.0311Z" fill="#252525" fill-rule="evenodd"/><path d="M570.599 90C575.761 90 579.618 91.5521 582.171 94.6563 584.724 97.7605 586 102.246 586 108.113L586 132.975 578.005 132.975 577.332 128.361 576.995 128.361C575.144 129.956 573.166 131.294 571.062 132.377 568.958 133.459 566.672 134 564.203 134 560.556 134 557.611 132.875 555.366 130.625 553.122 128.375 552 125.399 552 121.697 552 119.476 552.463 117.496 553.389 115.759 554.314 114.022 555.773 112.527 557.765 111.274 559.757 110.021 562.281 108.967 565.339 108.113 568.397 107.258 572.058 106.603 576.322 106.148 576.266 105.065 576.111 104.026 575.859 103.029 575.606 102.032 575.186 101.15 574.597 100.381 574.007 99.6116 573.236 99.0136 572.282 98.5864 571.328 98.1592 570.15 97.9456 568.747 97.9456 566.728 97.9456 564.75 98.3443 562.814 99.1417 560.879 99.9392 558.985 100.907 557.134 102.047L553.599 95.468C555.899 93.9871 558.48 92.7055 561.342 91.6233 564.203 90.5411 567.289 90 570.599 90ZM576.322 112.299C573.516 112.641 571.16 113.096 569.253 113.666 567.345 114.236 565.802 114.876 564.624 115.588 563.446 116.3 562.604 117.112 562.099 118.023 561.594 118.935 561.342 119.903 561.342 120.928 561.342 122.808 561.903 124.175 563.025 125.029 564.147 125.883 565.578 126.311 567.317 126.311 569 126.311 570.529 125.912 571.903 125.115 573.278 124.317 574.751 123.178 576.322 121.697L576.322 112.299Z" fill="#252525" fill-rule="evenodd"/><path d="M682.957 90C685.584 90 688.111 90.4984 690.537 91.4951 692.964 92.4919 695.091 93.9301 696.919 95.8097 698.746 97.6893 700.216 99.9961 701.33 102.73 702.443 105.464 703 108.568 703 112.043 703 115.517 702.443 118.621 701.33 121.355 700.216 124.089 698.746 126.396 696.919 128.276 695.091 130.155 692.964 131.579 690.537 132.548 688.111 133.516 685.584 134 682.957 134 680.331 134 677.818 133.516 675.42 132.548 673.021 131.579 670.894 130.155 669.039 128.276 667.183 126.396 665.712 124.089 664.627 121.355 663.542 118.621 663 115.517 663 112.043 663 108.568 663.542 105.464 664.627 102.73 665.712 99.9961 667.183 97.6893 669.039 95.8097 670.894 93.9301 673.021 92.4919 675.42 91.4951 677.818 90.4984 680.331 90 682.957 90ZM682.957 98.0311C679.874 98.0311 677.461 99.2984 675.719 101.833 673.978 104.368 673.107 107.771 673.107 112.043 673.107 116.258 673.978 119.632 675.719 122.167 677.461 124.702 679.874 125.969 682.957 125.969 686.041 125.969 688.468 124.702 690.238 122.167 692.008 119.632 692.893 116.258 692.893 112.043 692.893 107.771 692.008 104.368 690.238 101.833 688.468 99.2984 686.041 98.0311 682.957 98.0311Z" fill="#252525" fill-rule="evenodd"/><path d="M736.026 90C740.551 90 743.845 91.439 745.907 94.3171 747.969 97.1952 749 101.313 749 106.67L749 133 739.119 133 739.119 107.952C739.119 104.476 738.604 102.025 737.573 100.6 736.542 99.1756 734.852 98.4632 732.504 98.4632 730.671 98.4632 729.052 98.9049 727.649 99.7883 726.246 100.672 724.656 101.968 722.881 103.678L722.881 133 713 133 713 91.0258 721.162 91.0258 721.85 96.668 722.193 96.668C724.084 94.8443 726.131 93.277 728.336 91.9662 730.542 90.6554 733.105 90 736.026 90Z" fill="#252525" fill-rule="evenodd"/><path d="M644 91 653 91 653 133 644 133 644 91Z" fill="#252525" fill-rule="evenodd"/></g></svg>